<!DOCTYPE svg PUBLIC "-//W3C//DTD SVG 20010904//EN" "http://www.w3.org/TR/2001/REC-SVG-20010904/DTD/svg10.dtd">
<svg version="1.0" xmlns="http://www.w3.org/2000/svg" width="295px" height="317px" viewBox="0 0 2950 3170" preserveAspectRatio="xMidYMid meet">
<g id="layer101" fill="#231f1f" stroke="none">
<path d="M0 1585 l0 -1585 1475 0 1475 0 0 1585 0 1585 -1475 0 -1475 0 0 -1585z"/>
</g>
<g id="layer102" fill="#2c2e32" stroke="none">
<path d="M0 1585 l0 -1585 1475 0 1475 0 0 1585 0 1585 -1475 0 -1475 0 0 -1585z m1671 454 c224 -17 486 -98 477 -147 -3 -17 -54 -50 -79 -51 -11 -1 -35 -37 -67 -103 -77 -159 -180 -249 -352 -307 -44 -15 -78 -30 -74 -34 3 -3 4 -17 0 -31 -9 -38 -50 -54 -134 -51 -83 2 -116 23 -117 72 0 23 -6 28 -46 38 -139 36 -289 163 -354 301 -20 43 -40 86 -44 94 -4 8 -23 18 -42 23 -38 10 -69 33 -69 53 0 22 41 43 166 84 191 62 441 82 735 59z"/>
<path d="M1260 1949 c-176 -7 -281 -21 -337 -44 -32 -13 -34 -18 -28 -42 4 -16 8 -36 10 -45 22 -110 158 -276 270 -330 95 -46 287 -66 426 -44 195 31 363 184 414 378 17 65 12 70 -84 92 -148 34 -383 46 -671 35z"/>
</g>
<g id="layer103" fill="#204b61" stroke="none">
<path d="M0 1585 l0 -1585 1475 0 1475 0 0 1585 0 1585 -1475 0 -1475 0 0 -1585z m1775 445 c130 -17 349 -90 369 -122 14 -23 -7 -44 -60 -63 -34 -11 -41 -20 -65 -78 -69 -171 -206 -293 -388 -343 -33 -10 -58 -21 -55 -26 12 -19 -7 -58 -34 -71 -17 -9 -54 -14 -100 -12 -83 2 -116 23 -117 72 0 23 -6 28 -46 38 -79 21 -190 86 -252 149 -43 43 -71 86 -108 161 -45 92 -53 103 -81 109 -35 7 -68 32 -68 52 0 22 41 43 166 84 111 36 183 49 354 64 70 6 407 -3 485 -14z"/>
</g>
<g id="layer104" fill="#5b5859" stroke="none">
<path d="M1195 2009 c-125 -12 -139 -19 -25 -12 124 8 449 9 570 1 69 -5 83 -4 50 3 -66 13 -490 19 -595 8z"/>
<path d="M1260 1949 c-175 -7 -281 -21 -336 -44 -39 -16 -38 -15 -20 -76 55 -182 194 -324 366 -373 131 -38 352 -24 462 28 126 60 237 189 277 324 25 81 23 83 -78 106 -148 34 -383 46 -671 35z"/>
<path d="M1963 1935 c56 -15 100 -42 92 -55 -8 -13 17 -13 51 0 38 15 22 26 -70 50 -86 22 -151 26 -73 5z"/>
</g>
<g id="layer105" fill="#196e97" stroke="none">
<path d="M0 1585 l0 -1585 1475 0 1475 0 0 1585 0 1585 -1475 0 -1475 0 0 -1585z m1677 454 c134 -11 196 -23 328 -66 128 -41 147 -52 143 -82 -2 -21 -12 -29 -53 -42 -27 -10 -51 -23 -53 -30 -24 -89 -98 -205 -173 -273 -58 -52 -166 -107 -246 -126 -29 -7 -50 -16 -47 -22 12 -18 -7 -58 -34 -71 -17 -9 -54 -14 -100 -12 -83 2 -116 23 -117 72 0 24 -6 28 -49 39 -168 43 -302 165 -377 343 -24 57 -32 67 -61 74 -37 10 -68 34 -68 53 0 22 41 43 166 84 192 63 453 83 741 59z"/>
<path d="M1750 2000 c0 -7 3 -10 7 -7 3 4 3 10 0 14 -4 3 -7 0 -7 -7z"/>
</g>
<g id="layer106" fill="#1576a4" stroke="none">
<path d="M0 1585 l0 -1585 1475 0 1475 0 0 1585 0 1585 -1475 0 -1475 0 0 -1585z m1379 536 c9 -17 27 -19 188 -23 107 -3 183 -1 190 5 7 5 25 6 40 1 16 -4 32 -7 36 -6 4 1 10 -5 13 -13 4 -8 16 -15 28 -15 12 0 26 -4 32 -8 5 -5 34 -14 64 -21 30 -8 69 -20 85 -29 l30 -15 -25 27 -25 27 28 -10 c16 -6 43 -22 61 -36 18 -14 40 -25 49 -25 20 0 23 -20 5 -21 -7 0 -4 -4 7 -9 16 -7 17 -9 3 -9 -9 -1 -19 -5 -22 -10 -3 -4 5 -6 17 -4 18 4 23 0 23 -17 0 -17 -5 -21 -23 -17 -13 2 -20 0 -17 -5 4 -6 19 -8 35 -6 16 3 29 4 29 3 0 0 -15 -16 -34 -34 -31 -30 -34 -31 -50 -16 -14 14 -16 15 -16 1 0 -16 -31 -40 -67 -50 -18 -6 -21 -4 -16 16 4 13 11 27 17 31 7 6 6 7 -3 5 -8 -2 -19 -22 -26 -44 -39 -129 -151 -261 -276 -323 -43 -22 -103 -45 -134 -51 -31 -6 -53 -16 -49 -21 12 -20 -7 -59 -38 -75 -46 -24 -160 -16 -190 14 -12 12 -22 34 -23 48 0 24 -6 29 -60 44 -148 41 -271 144 -341 285 -22 44 -43 90 -46 103 -3 12 -14 22 -23 22 -31 0 -85 32 -85 50 0 19 114 110 137 110 8 0 12 4 8 9 -3 5 30 35 72 66 71 52 78 55 81 36 3 -20 9 -22 75 -19 64 3 73 6 82 26 9 20 17 22 77 22 56 0 69 -3 77 -19z"/>
<path d="M2178 1863 c7 -3 16 -2 19 1 4 3 -2 6 -13 5 -11 0 -14 -3 -6 -6z"/>
</g>
<g id="layer107" fill="#000000" stroke="none">
<path d="M1388 2013 c39 -2 105 -2 145 0 39 1 7 3 -73 3 -80 0 -112 -2 -72 -3z"/>
<path d="M1208 2003 c18 -2 45 -2 60 0 15 2 0 4 -33 4 -33 0 -45 -2 -27 -4z"/>
<path d="M1648 2003 c18 -2 45 -2 60 0 15 2 0 4 -33 4 -33 0 -45 -2 -27 -4z"/>
<path d="M1260 1949 c-224 -9 -370 -36 -370 -68 0 -21 48 -141 75 -187 65 -110 176 -199 298 -236 83 -25 281 -30 367 -9 177 43 329 193 386 380 17 57 11 63 -85 85 -148 34 -383 46 -671 35z"/>
<path d="M1963 1935 c59 -16 100 -42 91 -57 -5 -8 3 -9 26 -4 19 3 36 9 39 12 12 11 -33 33 -100 48 -82 19 -124 20 -56 1z"/>
</g>
<g id="layer108" fill="#1c9bd7" stroke="none">
<path d="M0 1585 l0 -1585 1475 0 1475 0 0 1585 0 1585 -1475 0 -1475 0 0 -1585z m1855 1011 c141 -65 260 -159 351 -277 99 -128 184 -339 138 -339 -13 0 -444 -397 -444 -410 0 -12 -114 -92 -165 -115 -28 -12 -76 -28 -108 -35 -32 -6 -55 -16 -51 -21 12 -20 -7 -59 -38 -75 -46 -24 -160 -16 -190 14 -12 12 -22 33 -23 48 0 24 -6 28 -75 48 -91 26 -137 53 -213 125 -64 61 -119 144 -147 224 -12 33 -25 53 -37 55 -32 7 -81 33 -87 48 -6 15 116 114 141 114 8 0 12 4 9 9 -3 4 172 144 389 311 217 167 395 309 395 316 0 18 68 0 155 -40z"/>
</g>
<g id="layer109" fill="#919091" stroke="none">
<path d="M0 1585 l0 -1585 1475 0 1475 0 0 1585 0 1585 -1475 0 -1475 0 0 -1585z m1665 1200 c322 -56 601 -269 747 -570 70 -145 90 -230 95 -407 8 -231 -26 -368 -145 -586 -199 -365 -495 -644 -963 -904 l-116 -65 19 51 c27 71 21 153 -16 231 -38 79 -189 229 -356 355 -153 116 -232 194 -304 304 -71 105 -112 195 -144 316 -22 83 -25 116 -26 255 0 191 19 285 88 431 58 122 106 193 190 281 240 254 586 368 931 308z"/>
<path d="M1392 2013 c37 -2 100 -2 140 0 40 1 10 3 -67 3 -77 0 -110 -1 -73 -3z"/>
<path d="M1213 2003 c15 -2 39 -2 55 0 15 2 2 4 -28 4 -30 0 -43 -2 -27 -4z"/>
<path d="M1653 2003 c15 -2 39 -2 55 0 15 2 2 4 -28 4 -30 0 -43 -2 -27 -4z"/>
<path d="M1260 1949 c-176 -7 -281 -21 -337 -44 -31 -13 -34 -18 -29 -40 38 -150 139 -289 261 -360 86 -50 161 -67 300 -68 189 -1 290 33 402 137 67 62 115 137 150 233 29 81 27 84 -76 107 -148 34 -383 46 -671 35z"/>
</g>
<g id="layer110" fill="#b4b3b3" stroke="none">
<path d="M0 1585 l0 -1585 1475 0 1475 0 0 1585 0 1585 -1475 0 -1475 0 0 -1585z m1513 1378 c-7 -2 -21 -2 -30 0 -10 3 -4 5 12 5 17 0 24 -2 18 -5z m152 -178 c322 -56 601 -269 747 -570 70 -145 90 -230 95 -407 8 -231 -26 -368 -145 -586 -199 -365 -495 -644 -963 -904 l-116 -65 19 51 c27 71 21 153 -16 231 -38 79 -189 229 -356 355 -153 116 -232 194 -304 304 -71 105 -112 195 -144 316 -22 83 -25 116 -26 255 0 191 19 285 88 431 58 122 106 193 190 281 240 254 586 368 931 308z"/>
<path d="M1418 2013 c23 -2 61 -2 85 0 23 2 4 4 -43 4 -47 0 -66 -2 -42 -4z"/>
<path d="M1223 2003 c4 -3 10 -3 14 0 3 4 0 7 -7 7 -7 0 -10 -3 -7 -7z"/>
<path d="M1683 2003 c4 -3 10 -3 14 0 3 4 0 7 -7 7 -7 0 -10 -3 -7 -7z"/>
</g>
<g id="layer111" fill="#d4d2d2" stroke="none">
<path d="M0 1585 l0 -1585 1475 0 1475 0 0 1585 0 1585 -1475 0 -1475 0 0 -1585z m1645 1435 c11 -5 14 -9 8 -9 -25 -2 -13 -21 13 -21 21 0 25 -4 22 -22 -2 -18 -12 -24 -48 -30 -24 -4 -48 -14 -52 -23 -7 -11 -27 -15 -77 -15 -86 0 -161 10 -161 22 0 4 12 6 28 3 26 -5 27 -5 2 4 -14 5 -42 12 -62 16 -29 4 -38 11 -38 25 0 13 7 20 20 20 11 0 20 6 20 14 0 8 10 17 23 19 41 8 282 6 302 -3z m-18 -107 c-4 -3 -10 -3 -14 0 -3 4 0 7 7 7 7 0 10 -3 7 -7z m38 -128 c322 -56 601 -269 747 -570 70 -145 90 -230 95 -407 8 -231 -26 -368 -145 -586 -199 -365 -495 -644 -963 -904 l-116 -65 19 51 c27 71 21 153 -16 231 -38 79 -189 229 -356 355 -153 116 -232 194 -304 304 -71 105 -112 195 -144 316 -22 83 -25 116 -26 255 0 191 19 285 88 431 58 122 106 193 190 281 240 254 586 368 931 308z"/>
</g>
<g id="layer112" fill="#e0e0e0" stroke="none">
<path d="M0 1585 l0 -1585 1475 0 1475 0 0 1585 0 1585 -1475 0 -1475 0 0 -1585z m1320 1445 c0 -5 10 -10 23 -10 13 0 17 3 11 8 -16 10 395 8 429 -2 15 -4 27 -13 27 -20 0 -7 15 -16 32 -21 45 -14 47 -39 6 -55 -18 -6 -42 -16 -53 -21 -34 -14 -197 -26 -201 -15 -5 13 -233 15 -252 3 -23 -15 -199 16 -241 42 -20 13 -6 39 26 47 15 4 33 13 38 20 18 25 155 45 155 24z m345 -245 c322 -56 601 -269 747 -570 70 -145 90 -230 95 -407 8 -231 -26 -368 -145 -586 -199 -365 -495 -644 -963 -904 l-116 -65 19 51 c27 71 21 153 -16 231 -38 79 -189 229 -356 355 -153 116 -232 194 -304 304 -71 105 -112 195 -144 316 -22 83 -25 116 -26 255 0 191 19 285 88 431 58 122 106 193 190 281 240 254 586 368 931 308z"/>
<path d="M1378 2923 c7 -3 16 -2 19 1 4 3 -2 6 -13 5 -11 0 -14 -3 -6 -6z"/>
<path d="M1260 1949 c-226 -9 -370 -36 -370 -69 0 -6 13 -45 30 -88 61 -158 190 -284 341 -332 58 -19 93 -23 202 -23 117 0 140 2 205 25 167 60 275 170 339 346 29 79 27 83 -76 106 -148 34 -383 46 -671 35z"/>
<path d="M1883 1953 c4 -3 10 -3 14 0 3 4 0 7 -7 7 -7 0 -10 -3 -7 -7z"/>
<path d="M1963 1935 c56 -15 100 -42 92 -55 -9 -15 29 -12 50 4 18 13 18 14 -2 25 -26 13 -141 41 -168 40 -11 0 2 -7 28 -14z"/>
</g>
<g id="layer113" fill="#fefefe" stroke="none">
<path d="M0 1585 l0 -1585 1475 0 1475 0 0 1585 0 1585 -1475 0 -1475 0 0 -1585z m1365 1449 c-30 -8 -36 -11 -16 -9 18 3 84 6 145 6 73 1 101 4 81 9 -27 7 -26 8 16 9 124 3 390 -41 425 -70 25 -20 15 -40 -28 -59 -59 -25 -191 -46 -196 -31 -5 16 -22 13 -22 -4 0 -10 -10 -15 -30 -15 -16 0 -30 5 -30 10 0 6 -16 10 -35 10 -24 0 -35 -5 -35 -15 0 -18 -30 -20 -31 -2 0 10 -2 10 -6 0 -7 -19 -83 -17 -83 2 0 10 11 15 35 15 19 0 35 3 35 8 0 4 -54 7 -119 7 -66 0 -123 -3 -127 -7 -4 -5 2 -8 14 -8 13 0 22 -6 22 -15 0 -9 -9 -15 -25 -15 -16 0 -25 6 -25 15 0 18 -46 21 -52 3 -4 -10 -31 -9 -128 5 -173 25 -241 59 -196 96 35 29 260 68 401 69 l60 0 -50 -14z m105 -159 c0 -11 -11 -15 -40 -15 -29 0 -40 4 -40 15 0 11 11 15 40 15 29 0 40 -4 40 -15z m195 -90 c322 -56 601 -269 747 -570 70 -145 90 -230 95 -407 8 -231 -26 -368 -145 -586 -199 -365 -495 -644 -963 -904 l-116 -65 19 51 c27 71 21 153 -16 231 -38 79 -189 229 -356 355 -153 116 -232 194 -304 304 -71 105 -112 195 -144 316 -22 83 -25 116 -26 255 0 191 19 285 88 431 58 122 106 193 190 281 240 254 586 368 931 308z"/>
<path d="M1291 2705 c-206 -45 -361 -133 -507 -288 -121 -128 -189 -254 -235 -435 -31 -120 -31 -310 -1 -432 56 -229 193 -433 378 -566 302 -217 725 -235 1042 -46 213 128 366 326 437 567 38 128 45 312 17 445 -80 387 -367 674 -754 755 -87 19 -291 18 -377 0z m391 -50 c348 -74 634 -373 698 -732 21 -114 9 -319 -25 -423 -158 -495 -674 -761 -1160 -599 -524 176 -774 771 -530 1264 83 167 218 310 379 400 78 43 224 92 312 104 85 12 232 5 326 -14z"/>
<path d="M1260 1949 c-176 -7 -281 -21 -337 -44 -42 -18 -41 -28 18 -152 91 -190 254 -301 465 -317 75 -6 94 -5 106 8 9 8 18 13 21 10 2 -3 40 19 83 48 60 41 87 67 112 108 44 73 74 175 75 257 l2 67 -50 7 c-78 11 -314 15 -495 8z m-261 -166 c-15 -18 -34 -1 -25 22 5 14 9 15 21 5 12 -10 13 -16 4 -27z m56 -74 c40 -55 96 -100 172 -138 69 -34 80 -46 63 -66 -35 -42 -191 58 -259 164 -32 49 -41 95 -18 85 6 -2 26 -23 42 -45z"/>
<path d="M864 1926 c-63 -20 -70 -27 -49 -43 25 -17 45 -17 45 2 0 8 15 24 33 35 37 23 30 24 -29 6z"/>
<path d="M2015 1917 c22 -13 39 -29 38 -35 -4 -17 29 -15 53 2 18 14 17 15 -16 29 -19 9 -53 18 -75 22 l-40 6 40 -24z"/>
<path d="M1984 1892 c6 -11 -74 -180 -112 -234 -50 -73 -124 -138 -197 -174 -41 -20 -58 -32 -40 -28 64 12 177 76 230 129 61 61 95 116 137 217 27 67 27 71 11 84 -20 15 -37 18 -29 6z"/>
<path d="M1573 1443 c4 -3 10 -3 14 0 3 4 0 7 -7 7 -7 0 -10 -3 -7 -7z"/>
<path d="M1373 1400 c-54 -22 -3 -60 80 -60 63 0 97 12 97 36 0 8 -12 19 -26 24 -31 12 -121 12 -151 0z"/>
</g>


</svg>